<svg xmlns="http://www.w3.org/2000/svg" viewBox="0 0 700 350" style="background:#161b22;font-family:Georgia,serif">
<rect width="700" height="350" fill="#161b22"/>
<text x="350" y="22" fill="#e8a665" font-size="13" text-anchor="middle" font-weight="bold">Electrochemical Cascade: Product Distribution vs. Applied Potential</text>
<text x="131.66666666666669" y="50" fill="#39d2c0" font-size="10" text-anchor="middle">0.50 V (aldehyde selective)</text>
<line x1="45" y1="55" x2="45" y2="310" stroke="#8b949e" stroke-width="1"/>
<line x1="45" y1="310" x2="218.33333333333334" y2="310" stroke="#8b949e" stroke-width="1"/>
<text x="41" y="313" fill="#8b949e" font-size="9" text-anchor="end">0%</text>
<text x="41" y="185.5" fill="#8b949e" font-size="9" text-anchor="end">50%</text>
<text x="41" y="58" fill="#8b949e" font-size="9" text-anchor="end">100%</text>
<text x="45" y="324" fill="#8b949e" font-size="9" text-anchor="middle">0m</text>
<text x="131.66666666666669" y="324" fill="#8b949e" font-size="9" text-anchor="middle">60m</text>
<text x="218.33333333333334" y="324" fill="#8b949e" font-size="9" text-anchor="middle">120m</text>
<polyline points="45.0,55.0 52.2,77.1 59.4,97.4 66.7,115.8 73.9,132.7 81.1,148.1 88.3,162.1 95.6,175.0 102.8,186.7 110.0,197.4 117.2,207.2 124.4,216.1 131.7,224.3 138.9,231.7 146.1,238.5 153.3,244.7 160.6,250.4 167.8,255.5 175.0,260.3 182.2,264.6 189.4,268.5 196.7,272.1 203.9,275.4 211.1,278.4 218.3,281.2" fill="none" stroke="#f85149" stroke-width="2"/>
<polyline points="45.0,310.0 52.2,287.9 59.4,267.8 66.7,249.5 73.9,232.8 81.1,217.6 88.3,203.9 95.6,191.4 102.8,180.0 110.0,169.7 117.2,160.4 124.4,151.9 131.7,144.2 138.9,137.3 146.1,131.0 153.3,125.4 160.6,120.3 167.8,115.7 175.0,111.5 182.2,107.8 189.4,104.5 196.7,101.5 203.9,98.8 211.1,96.5 218.3,94.4" fill="none" stroke="#d29922" stroke-width="2"/>
<polyline points="45.0,310.0 52.2,310.0 59.4,309.9 66.7,309.7 73.9,309.5 81.1,309.3 88.3,309.0 95.6,308.7 102.8,308.3 110.0,307.9 117.2,307.4 124.4,307.0 131.7,306.5 138.9,306.0 146.1,305.5 153.3,304.9 160.6,304.4 167.8,303.8 175.0,303.2 182.2,302.6 189.4,302.0 196.7,301.4 203.9,300.7 211.1,300.1 218.3,299.5" fill="none" stroke="#3fb950" stroke-width="2"/>
<text x="365.00000000000006" y="50" fill="#39d2c0" font-size="10" text-anchor="middle">0.68 V (balanced cascade)</text>
<line x1="278.33333333333337" y1="55" x2="278.33333333333337" y2="310" stroke="#8b949e" stroke-width="1"/>
<line x1="278.33333333333337" y1="310" x2="451.66666666666674" y2="310" stroke="#8b949e" stroke-width="1"/>
<text x="278.33333333333337" y="324" fill="#8b949e" font-size="9" text-anchor="middle">0m</text>
<text x="365.00000000000006" y="324" fill="#8b949e" font-size="9" text-anchor="middle">60m</text>
<text x="451.66666666666674" y="324" fill="#8b949e" font-size="9" text-anchor="middle">120m</text>
<polyline points="278.3,55.0 285.6,97.7 292.8,133.3 300.0,162.9 307.2,187.5 314.4,208.0 321.7,225.1 328.9,239.3 336.1,251.2 343.3,261.0 350.6,269.2 357.8,276.1 365.0,281.7 372.2,286.5 379.4,290.4 386.7,293.7 393.9,296.4 401.1,298.7 408.3,300.6 415.6,302.2 422.8,303.5 430.0,304.6 437.2,305.5 444.4,306.2 451.7,306.9" fill="none" stroke="#f85149" stroke-width="2"/>
<polyline points="278.3,310.0 285.6,268.3 292.8,236.1 300.0,211.5 307.2,193.3 314.4,180.1 321.7,171.1 328.9,165.3 336.1,162.3 343.3,161.3 350.6,162.0 357.8,164.0 365.0,167.0 372.2,170.8 379.4,175.1 386.7,179.8 393.9,184.8 401.1,189.9 408.3,195.1 415.6,200.3 422.8,205.4 430.0,210.5 437.2,215.4 444.4,220.2 451.7,224.9" fill="none" stroke="#d29922" stroke-width="2"/>
<polyline points="278.3,310.0 285.6,309.0 292.8,305.6 300.0,300.6 307.2,294.2 314.4,286.9 321.7,278.8 328.9,270.3 336.1,261.6 343.3,252.7 350.6,243.8 357.8,234.9 365.0,226.2 372.2,217.8 379.4,209.5 386.7,201.5 393.9,193.8 401.1,186.4 408.3,179.3 415.6,172.6 422.8,166.1 430.0,160.0 437.2,154.1 444.4,148.5 451.7,143.3" fill="none" stroke="#3fb950" stroke-width="2"/>
<text x="598.3333333333334" y="50" fill="#39d2c0" font-size="10" text-anchor="middle">0.80 V (rapid maturation)</text>
<line x1="511.6666666666667" y1="55" x2="511.6666666666667" y2="310" stroke="#8b949e" stroke-width="1"/>
<line x1="511.6666666666667" y1="310" x2="685" y2="310" stroke="#8b949e" stroke-width="1"/>
<text x="511.6666666666667" y="324" fill="#8b949e" font-size="9" text-anchor="middle">0m</text>
<text x="598.3333333333334" y="324" fill="#8b949e" font-size="9" text-anchor="middle">60m</text>
<text x="685" y="324" fill="#8b949e" font-size="9" text-anchor="middle">120m</text>
<polyline points="511.7,55.0 518.9,175.4 526.1,239.0 533.3,272.5 540.6,290.2 547.8,299.6 555.0,304.5 562.2,307.1 569.4,308.5 576.7,309.2 583.9,309.6 591.1,309.8 598.3,309.9 605.6,309.9 612.8,310.0 620.0,310.0 627.2,310.0 634.4,310.0 641.7,310.0 648.9,310.0 656.1,310.0 663.3,310.0 670.6,310.0 677.8,310.0 685.0,310.0" fill="none" stroke="#f85149" stroke-width="2"/>
<polyline points="511.7,310.0 518.9,207.7 526.1,185.6 533.3,195.9 540.6,216.4 547.8,237.7 555.0,256.0 562.2,270.6 569.4,281.7 576.7,289.9 583.9,295.9 591.1,300.1 598.3,303.1 605.6,305.2 612.8,306.7 620.0,307.7 627.2,308.4 634.4,308.9 641.7,309.2 648.9,309.5 656.1,309.6 663.3,309.8 670.6,309.8 677.8,309.9 685.0,309.9" fill="none" stroke="#d29922" stroke-width="2"/>
<polyline points="511.7,310.0 518.9,291.9 526.1,250.4 533.3,206.6 540.6,168.4 547.8,137.8 555.0,114.5 562.2,97.3 569.4,84.8 576.7,75.9 583.9,69.6 591.1,65.1 598.3,62.0 605.6,59.9 612.8,58.4 620.0,57.3 627.2,56.6 634.4,56.1 641.7,55.8 648.9,55.5 656.1,55.4 663.3,55.2 670.6,55.2 677.8,55.1 685.0,55.1" fill="none" stroke="#3fb950" stroke-width="2"/>
<line x1="230" y1="335" x2="250" y2="335" stroke="#f85149" stroke-width="2.5"/>
<text x="255" y="339" fill="#e6edf3" font-size="10" text-anchor="start">Alcohol</text>
<line x1="330" y1="335" x2="350" y2="335" stroke="#d29922" stroke-width="2.5"/>
<text x="355" y="339" fill="#e6edf3" font-size="10" text-anchor="start">Aldehyde</text>
<line x1="430" y1="335" x2="450" y2="335" stroke="#3fb950" stroke-width="2.5"/>
<text x="455" y="339" fill="#e6edf3" font-size="10" text-anchor="start">Acid/Ester</text>
</svg>