<svg xmlns="http://www.w3.org/2000/svg" viewBox="0 0 700 480" style="background:#161b22;font-family:Georgia,serif">
<rect width="700" height="480" fill="#161b22"/>
<text x="350" y="25" fill="#e8a665" font-size="14" text-anchor="middle" font-weight="bold">Fig S2 — CRO-10 Five-Phase Reflux Operating Protocol</text>
<text x="350" y="57" fill="#e6edf3" font-size="10" text-anchor="middle">Dephlegmator reflux ratio vs distillation progress</text>
<rect x="80" y="75" width="540" height="270" fill="none" stroke="#8b949e" stroke-width="1"/>
<line x1="80" y1="345" x2="620" y2="345" stroke="#30363d" stroke-width="0.3"/>
<text x="76" y="348" fill="#8b949e" font-size="7" text-anchor="end">0</text>
<line x1="80" y1="277.5" x2="620" y2="277.5" stroke="#30363d" stroke-width="0.3"/>
<text x="76" y="280.5" fill="#8b949e" font-size="7" text-anchor="end">1</text>
<line x1="80" y1="210" x2="620" y2="210" stroke="#30363d" stroke-width="0.3"/>
<text x="76" y="213" fill="#8b949e" font-size="7" text-anchor="end">2</text>
<line x1="80" y1="142.5" x2="620" y2="142.5" stroke="#30363d" stroke-width="0.3"/>
<text x="76" y="145.5" fill="#8b949e" font-size="7" text-anchor="end">3</text>
<line x1="80" y1="75" x2="620" y2="75" stroke="#30363d" stroke-width="0.3"/>
<text x="76" y="78" fill="#8b949e" font-size="7" text-anchor="end">4</text>
<text x="50" y="210" fill="#8b949e" font-size="9" text-anchor="middle">R</text>
<line x1="80" y1="345" x2="80" y2="349" stroke="#8b949e" stroke-width="0.5"/>
<text x="80" y="359" fill="#8b949e" font-size="6" text-anchor="middle">0%</text>
<line x1="134" y1="345" x2="134" y2="349" stroke="#8b949e" stroke-width="0.5"/>
<text x="134" y="359" fill="#8b949e" font-size="6" text-anchor="middle">10%</text>
<line x1="188" y1="345" x2="188" y2="349" stroke="#8b949e" stroke-width="0.5"/>
<text x="188" y="359" fill="#8b949e" font-size="6" text-anchor="middle">20%</text>
<line x1="242" y1="345" x2="242" y2="349" stroke="#8b949e" stroke-width="0.5"/>
<text x="242" y="359" fill="#8b949e" font-size="6" text-anchor="middle">30%</text>
<line x1="296" y1="345" x2="296" y2="349" stroke="#8b949e" stroke-width="0.5"/>
<text x="296" y="359" fill="#8b949e" font-size="6" text-anchor="middle">40%</text>
<line x1="350" y1="345" x2="350" y2="349" stroke="#8b949e" stroke-width="0.5"/>
<text x="350" y="359" fill="#8b949e" font-size="6" text-anchor="middle">50%</text>
<line x1="404" y1="345" x2="404" y2="349" stroke="#8b949e" stroke-width="0.5"/>
<text x="404" y="359" fill="#8b949e" font-size="6" text-anchor="middle">60%</text>
<line x1="458" y1="345" x2="458" y2="349" stroke="#8b949e" stroke-width="0.5"/>
<text x="458" y="359" fill="#8b949e" font-size="6" text-anchor="middle">70%</text>
<line x1="512" y1="345" x2="512" y2="349" stroke="#8b949e" stroke-width="0.5"/>
<text x="512" y="359" fill="#8b949e" font-size="6" text-anchor="middle">80%</text>
<line x1="566" y1="345" x2="566" y2="349" stroke="#8b949e" stroke-width="0.5"/>
<text x="566" y="359" fill="#8b949e" font-size="6" text-anchor="middle">90%</text>
<line x1="620" y1="345" x2="620" y2="349" stroke="#8b949e" stroke-width="0.5"/>
<text x="620" y="359" fill="#8b949e" font-size="6" text-anchor="middle">100%</text>
<text x="350" y="373" fill="#8b949e" font-size="8" text-anchor="middle">Volume collected (% of total condensate)</text>
<rect x="80.0" y="75" width="10.8" height="270" fill="#f85149" opacity="0.12"/>
<text x="85.4" y="87" fill="#f85149" font-size="7" text-anchor="middle">Foreshots</text>
<rect x="90.8" y="75" width="43.2" height="270" fill="#d29922" opacity="0.08"/>
<text x="112.4" y="87" fill="#d29922" font-size="7" text-anchor="middle">Heads</text>
<rect x="134.0" y="75" width="243.0" height="270" fill="#3fb950" opacity="0.10"/>
<text x="255.5" y="87" fill="#3fb950" font-size="7" text-anchor="middle">Hearts (R≈0)</text>
<rect x="377.0" y="75" width="54.0" height="270" fill="#e8a665" opacity="0.10"/>
<text x="404" y="87" fill="#e8a665" font-size="7" text-anchor="middle">Late hearts</text>
<rect x="431.0" y="75" width="108.0" height="270" fill="#d29922" opacity="0.08"/>
<text x="485" y="87" fill="#d29922" font-size="7" text-anchor="middle">Tails</text>
<rect x="539.0" y="75" width="81.0" height="270" fill="#8b949e" opacity="0.06"/>
<text x="579.5" y="87" fill="#8b949e" font-size="7" text-anchor="middle">Residue</text>
<polyline points="80.0,108.8 85.4,108.8 90.8,142.5 107.0,243.8 123.2,291.0 134.0,345.0 350.0,345.0 377.0,345.0 393.2,324.8 425.6,324.8 431.0,311.2 458.0,277.5 512.0,210.0 539.0,176.2 620.0,176.2" fill="none" stroke="#e8a665" stroke-width="3" stroke-linejoin="round"/>
<text x="85.4" y="98.75" fill="#f85149" font-size="6" text-anchor="start">Strip volatiles</text>
<text x="242" y="360" fill="#3fb950" font-size="7" text-anchor="middle">Max congener passage (R=0)</text>
<text x="404" y="314.75" fill="#e8a665" font-size="7" text-anchor="middle">Dephleg engaged</text>
<text x="485" y="233.75" fill="#d29922" font-size="7" text-anchor="middle">Recycle feints</text>
<polyline points="80.0,345.0 107.0,338.2 134.0,324.8 188.0,304.5 242.0,284.2 296.0,264.0 350.0,243.8 404.0,223.5 458.0,210.0 512.0,223.5 566.0,264.0 620.0,311.2" fill="none" stroke="#58a6ff" stroke-width="1.5" stroke-dasharray="4,3" opacity="0.7"/>
<text x="468.8" y="204" fill="#58a6ff" font-size="6" text-anchor="start">EtHex flow</text>
<polyline points="80.0,324.8 90.8,324.8 107.0,331.5 134.0,338.2 188.0,341.6 296.0,343.6 404.0,344.3 620.0,345.0" fill="none" stroke="#8b949e" stroke-width="1.5" stroke-dasharray="2,2" opacity="0.5"/>
<text x="123.2" y="340.125" fill="#8b949e" font-size="6" text-anchor="start">DMS (Cu-oxidized)</text>
<text x="85.4" y="393" fill="#f85149" font-size="7" text-anchor="middle">DISCARD</text>
<text x="112.4" y="393" fill="#d29922" font-size="7" text-anchor="middle">SET ASIDE</text>
<text x="252.8" y="393" fill="#3fb950" font-size="8" text-anchor="middle">COLLECT AS SPIRIT</text>
<text x="404" y="393" fill="#e8a665" font-size="7" text-anchor="middle">BLEND</text>
<text x="485" y="393" fill="#d29922" font-size="7" text-anchor="middle">RECYCLE</text>
<text x="576.8" y="393" fill="#8b949e" font-size="7" text-anchor="middle">DISCARD</text>
<rect x="60" y="430" width="580" height="38" rx="4" fill="#30363d" opacity="0.85"/>
<text x="350" y="448" fill="#e8a665" font-size="8" text-anchor="middle">R=0 during hearts maximizes flavor; dephlegmator gives real-time congener control</text>
<text x="350" y="462" fill="#3fb950" font-size="8" text-anchor="middle">Extended hearts (10–65%) + Cu DMS removal = wider cut without off-flavor penalty</text>
</svg>