<svg xmlns="http://www.w3.org/2000/svg" viewBox="0 0 700 480" style="background:#161b22;font-family:Georgia,serif">
<rect width="700" height="480" fill="#161b22"/>
<text x="350" y="25" fill="#e8a665" font-size="14" text-anchor="middle" font-weight="bold">Fig S3 — Copper Surface Area vs DMS Removal Efficiency</text>
<text x="200" y="57" fill="#e6edf3" font-size="10" text-anchor="middle">A: DMS Removal vs Cu Surface Area</text>
<rect x="80" y="75" width="250" height="270" fill="none" stroke="#8b949e" stroke-width="1"/>
<line x1="80" y1="345" x2="330" y2="345" stroke="#30363d" stroke-width="0.3"/>
<text x="76" y="348" fill="#8b949e" font-size="6" text-anchor="end">0%</text>
<line x1="80" y1="291" x2="330" y2="291" stroke="#30363d" stroke-width="0.3"/>
<text x="76" y="294" fill="#8b949e" font-size="6" text-anchor="end">20%</text>
<line x1="80" y1="237" x2="330" y2="237" stroke="#30363d" stroke-width="0.3"/>
<text x="76" y="240" fill="#8b949e" font-size="6" text-anchor="end">40%</text>
<line x1="80" y1="183" x2="330" y2="183" stroke="#30363d" stroke-width="0.3"/>
<text x="76" y="186" fill="#8b949e" font-size="6" text-anchor="end">60%</text>
<line x1="80" y1="129" x2="330" y2="129" stroke="#30363d" stroke-width="0.3"/>
<text x="76" y="132" fill="#8b949e" font-size="6" text-anchor="end">80%</text>
<line x1="80" y1="75" x2="330" y2="75" stroke="#30363d" stroke-width="0.3"/>
<text x="76" y="78" fill="#8b949e" font-size="6" text-anchor="end">100%</text>
<line x1="80" y1="345" x2="80" y2="349" stroke="#8b949e" stroke-width="0.5"/>
<text x="80" y="359" fill="#8b949e" font-size="6" text-anchor="middle">0k</text>
<line x1="142.5" y1="345" x2="142.5" y2="349" stroke="#8b949e" stroke-width="0.5"/>
<text x="142.5" y="359" fill="#8b949e" font-size="6" text-anchor="middle">4k</text>
<line x1="205" y1="345" x2="205" y2="349" stroke="#8b949e" stroke-width="0.5"/>
<text x="205" y="359" fill="#8b949e" font-size="6" text-anchor="middle">8k</text>
<line x1="267.5" y1="345" x2="267.5" y2="349" stroke="#8b949e" stroke-width="0.5"/>
<text x="267.5" y="359" fill="#8b949e" font-size="6" text-anchor="middle">12k</text>
<line x1="330" y1="345" x2="330" y2="349" stroke="#8b949e" stroke-width="0.5"/>
<text x="330" y="359" fill="#8b949e" font-size="6" text-anchor="middle">16k</text>
<text x="205" y="373" fill="#8b949e" font-size="8" text-anchor="middle">Cu area (cm²)</text>
<polyline points="80.0,345.0 81.6,225.0 83.1,178.8 84.7,154.4 86.2,139.3 87.8,129.0 89.4,121.6 90.9,115.9 92.5,111.5 94.1,107.9 95.6,105.0 97.2,102.6 98.8,100.5 100.3,98.7 101.9,97.1 103.4,95.8 105.0,94.6 106.6,93.5 108.1,92.5 109.7,91.7 111.2,90.9 112.8,90.2 114.4,89.5 115.9,88.9 117.5,88.4 119.1,87.9 120.6,87.4 122.2,86.9 123.8,86.5 125.3,86.2 126.9,85.8 128.4,85.5 130.0,85.2 131.6,84.9 133.1,84.6 134.7,84.3 136.2,84.1 137.8,83.8 139.4,83.6 140.9,83.4 142.5,83.2 144.1,83.0 145.6,82.8 147.2,82.6 148.8,82.5 150.3,82.3 151.9,82.1 153.4,82.0 155.0,81.9 156.6,81.7 158.1,81.6 159.7,81.5 161.2,81.3 162.8,81.2 164.4,81.1 165.9,81.0 167.5,80.9 169.1,80.8 170.6,80.7 172.2,80.6 173.8,80.5 175.3,80.4 176.9,80.3 178.4,80.3 180.0,80.2 181.6,80.1 183.1,80.0 184.7,79.9 186.2,79.9 187.8,79.8 189.4,79.7 190.9,79.7 192.5,79.6 194.1,79.5 195.6,79.5 197.2,79.4 198.8,79.4 200.3,79.3 201.9,79.3 203.4,79.2 205.0,79.2 206.6,79.1 208.1,79.1 209.7,79.0 211.2,79.0 212.8,78.9 214.4,78.9 215.9,78.8 217.5,78.8 219.1,78.7 220.6,78.7 222.2,78.7 223.8,78.6 225.3,78.6 226.9,78.5 228.4,78.5 230.0,78.5 231.6,78.4 233.1,78.4 234.7,78.4 236.2,78.3 237.8,78.3 239.4,78.3 240.9,78.2 242.5,78.2 244.1,78.2 245.6,78.1 247.2,78.1 248.8,78.1 250.3,78.1 251.9,78.0 253.4,78.0 255.0,78.0 256.6,78.0 258.1,77.9 259.7,77.9 261.2,77.9 262.8,77.9 264.4,77.8 265.9,77.8 267.5,77.8 269.1,77.8 270.6,77.7 272.2,77.7 273.8,77.7 275.3,77.7 276.9,77.7 278.4,77.6 280.0,77.6 281.6,77.6 283.1,77.6 284.7,77.6 286.2,77.5 287.8,77.5 289.4,77.5 290.9,77.5 292.5,77.5 294.1,77.4 295.6,77.4 297.2,77.4 298.8,77.4 300.3,77.4 301.9,77.4 303.4,77.3 305.0,77.3 306.6,77.3 308.1,77.3 309.7,77.3 311.2,77.3 312.8,77.2 314.4,77.2 315.9,77.2 317.5,77.2 319.1,77.2 320.6,77.2 322.2,77.2 323.8,77.1 325.3,77.1 326.9,77.1 328.4,77.1 330.0,77.1" fill="none" stroke="#3fb950" stroke-width="2.5"/>
<line x1="80" y1="102" x2="330" y2="102" stroke="#e8a665" stroke-width="1" stroke-dasharray="4,3"/>
<text x="333" y="105" fill="#e8a665" font-size="6" text-anchor="start">Sensory</text>
<text x="333" y="114" fill="#e8a665" font-size="6" text-anchor="start">threshold</text>
<circle cx="80.0" cy="345.0" r="4" fill="#58a6ff" stroke="#e6edf3" stroke-width="1"/>
<text x="88" y="340" fill="#58a6ff" font-size="7" text-anchor="start">SS still: 0%</text>
<circle cx="87.8" cy="129.0" r="4" fill="#f85149" stroke="#e6edf3" stroke-width="1"/>
<text x="95.8125" y="132" fill="#f85149" font-size="7" text-anchor="start">Pot still: 80%</text>
<circle cx="217.5" cy="78.8" r="4" fill="#3fb950" stroke="#e6edf3" stroke-width="1"/>
<text x="212.5" y="68.781512605042" fill="#3fb950" font-size="7" text-anchor="end">CRO: 98.6%</text>
<text x="530" y="57" fill="#e6edf3" font-size="10" text-anchor="middle">B: DMS in Hearts (ppm)</text>
<rect x="420" y="75" width="230" height="270" fill="none" stroke="#8b949e" stroke-width="1"/>
<line x1="420" y1="345" x2="650" y2="345" stroke="#30363d" stroke-width="0.3"/>
<text x="416" y="348" fill="#8b949e" font-size="6" text-anchor="end">0</text>
<line x1="420" y1="277.5" x2="650" y2="277.5" stroke="#30363d" stroke-width="0.3"/>
<text x="416" y="280.5" fill="#8b949e" font-size="6" text-anchor="end">10</text>
<line x1="420" y1="210" x2="650" y2="210" stroke="#30363d" stroke-width="0.3"/>
<text x="416" y="213" fill="#8b949e" font-size="6" text-anchor="end">20</text>
<line x1="420" y1="142.5" x2="650" y2="142.5" stroke="#30363d" stroke-width="0.3"/>
<text x="416" y="145.5" fill="#8b949e" font-size="6" text-anchor="end">30</text>
<line x1="420" y1="75" x2="650" y2="75" stroke="#30363d" stroke-width="0.3"/>
<text x="416" y="78" fill="#8b949e" font-size="6" text-anchor="end">40</text>
<line x1="420" y1="176.25" x2="650" y2="176.25" stroke="#e8a665" stroke-width="1" stroke-dasharray="4,3"/>
<text x="653" y="179.25" fill="#e8a665" font-size="6" text-anchor="start">25 ppb</text>
<text x="653" y="188.25" fill="#e8a665" font-size="6" text-anchor="start">threshold</text>
<rect x="445.0" y="142.5" width="50" height="202.5" fill="#f85149" opacity="0.85" rx="2"/>
<text x="470" y="136.5" fill="#f85149" font-size="7" text-anchor="middle">30 ppb</text>
<text x="470" y="357" fill="#f85149" font-size="7" text-anchor="middle">Pot still</text>
<rect x="517.0" y="331.5" width="50" height="13.5" fill="#3fb950" opacity="0.85" rx="2"/>
<text x="542" y="325.5" fill="#3fb950" font-size="7" text-anchor="middle">2 ppb</text>
<text x="542" y="357" fill="#3fb950" font-size="7" text-anchor="middle">CRO</text>
<rect x="589.0" y="341.6" width="50" height="3.4" fill="#58a6ff" opacity="0.85" rx="2"/>
<text x="614" y="335.625" fill="#58a6ff" font-size="7" text-anchor="middle">0 ppb</text>
<text x="614" y="357" fill="#58a6ff" font-size="7" text-anchor="middle">Column</text>
<text x="535" y="69" fill="#f85149" font-size="7" text-anchor="middle">↓ Lower = better</text>
<rect x="60" y="430" width="580" height="38" rx="4" fill="#30363d" opacity="0.85"/>
<text x="350" y="448" fill="#e8a665" font-size="8" text-anchor="middle">3" Cu column × 18" packed with 3/8" Raschig rings: 8,800 cm² Cu surface</text>
<text x="350" y="462" fill="#3fb950" font-size="8" text-anchor="middle">98.6% DMS removal — 15× better than pot still alone, well below sensory threshold</text>
</svg>